<svg preserveAspectRatio="none" overflow="visible" style="display: block;" width="624.869" height="96.482" viewBox="0 0 624.869 96.482" fill="none" xmlns="http://www.w3.org/2000/svg">
<path id="Line 15" d="M624.55 71.3823C624.807 71.2822 624.934 70.9923 624.834 70.735C624.734 70.4777 624.444 70.3503 624.187 70.4505L624.368 70.9164L624.55 71.3823ZM0.268116 70.9164L0.536231 71.3385C80.9657 20.2422 141.989 1.78405 192.801 1.02459C243.612 0.265156 284.278 17.201 324.02 37.0335C363.743 56.8562 402.585 79.6008 449.62 90.3002C496.686 101.007 551.938 99.6551 624.55 71.3823L624.368 70.9164L624.187 70.4505C551.743 98.658 496.694 99.983 449.842 89.3251C402.959 78.6602 364.266 55.9996 324.467 36.1387C284.687 16.2876 243.844 -0.738421 192.786 0.0247022C141.73 0.787805 80.5265 19.3366 0 70.4944L0.268116 70.9164Z" fill="#DCD9FF" fill-opacity="0.5"/>
</svg>
